<svg width="26" height="27" viewBox="0 0 26 27" fill="none" xmlns="http://www.w3.org/2000/svg">
<path d="M12.25 4C10.8838 4.00133 9.73117 4.01015 8.75 4.0685V8.24976H12.25V4Z" fill="#38785C"/>
<path d="M7.25 4.2214C6.02727 4.41566 5.1485 4.78019 4.46447 5.46423C3.78043 6.14826 3.4159 7.02703 3.22164 8.24976H7.25V4.2214Z" fill="#38785C"/>
<path fill-rule="evenodd" clip-rule="evenodd" d="M3 13.9998C3 12.2993 3 10.9056 3.06874 9.74976L22.9313 9.74976C23 10.9056 23 12.2993 23 13.9998C23 15.7002 23 17.094 22.9313 18.2498L3.06874 18.2498C3 17.094 3 15.7002 3 13.9998ZM13.4112 12.4043C14.4704 13.1162 15 13.4722 15 14C15 14.5278 14.4704 14.8838 13.4112 15.5957C12.3375 16.3173 11.8006 16.6781 11.4003 16.4132C11 16.1483 11 15.4322 11 14C11 12.5678 11 11.8517 11.4003 11.5868C11.8006 11.3219 12.3375 11.6827 13.4112 12.4043Z" fill="#38785C"/>
<path d="M22.7784 8.24976C22.5841 7.02703 22.2196 6.14826 21.5355 5.46423C20.8515 4.78019 19.9727 4.41566 18.75 4.2214V8.24976H22.7784Z" fill="#38785C"/>
<path d="M13.75 4C15.1162 4.00133 16.2688 4.01015 17.25 4.0685V8.24976H13.75V4Z" fill="#38785C"/>
<path d="M22.7784 19.7498H18.75V23.7781C19.9727 23.5839 20.8515 23.2193 21.5355 22.5353C22.2196 21.8513 22.5841 20.9725 22.7784 19.7498Z" fill="#38785C"/>
<path d="M17.25 19.7498V23.931C16.2688 23.9894 15.1162 23.9982 13.75 23.9995V19.7498H17.25Z" fill="#38785C"/>
<path d="M12.25 23.9995V19.7498H8.75L8.75 23.931C9.73117 23.9894 10.8838 23.9982 12.25 23.9995Z" fill="#38785C"/>
<path d="M7.25 19.7498L7.25 23.7781C6.02727 23.5839 5.1485 23.2193 4.46447 22.5353C3.78043 21.8513 3.4159 20.9725 3.22164 19.7498H7.25Z" fill="#38785C"/>
</svg>
