<svg width="25" height="17" viewBox="0 0 25 17" fill="none" xmlns="http://www.w3.org/2000/svg">
<path d="M8.79437 7.9224C9.60938 7.76106 10.3387 7.3221 10.8515 6.68427C11.3643 6.04644 11.6271 5.25148 11.5926 4.442C11.5926 2.00816 9.66881 0.547852 6.74568 0.547852H0V16.3678H6.74568C9.9936 16.2461 12.492 14.6155 12.492 11.7922C12.5154 11.3003 12.4378 10.8089 12.2638 10.3466C12.0897 9.8843 11.8226 9.46053 11.4782 9.10011C11.1338 8.73968 10.7191 8.44986 10.2582 8.24763C9.79734 8.0454 9.29967 7.93482 8.79437 7.9224ZM3.14798 2.78699H6.02114C7.52018 2.78699 8.39462 3.56582 8.39462 4.85576C8.39462 6.14569 7.44523 7.02187 5.27162 7.02187H3.14798V2.78699ZM5.64638 13.9097H3.14798V9.188H6.22101C8.09481 9.188 9.14414 10.1129 9.14414 11.6218C9.14414 13.1308 8.09481 13.9097 5.54645 13.9097H5.64638Z" fill="#5A5A5A"/>
<path d="M19.3627 4.3203C18.6051 4.25883 17.8428 4.3577 17.1282 4.61013C16.4135 4.86255 15.7633 5.26257 15.2222 5.78274C14.6811 6.30291 14.2619 6.93093 13.9934 7.62372C13.7248 8.31652 13.6132 9.0577 13.6663 9.79645V10.8917C13.6048 11.6516 13.7144 12.4153 13.9876 13.1296C14.2607 13.8439 14.6907 14.4915 15.2476 15.0269C15.8044 15.5624 16.4746 15.973 17.2113 16.2298C17.948 16.4866 18.7334 16.5836 19.5126 16.5139C20.7458 16.6566 21.9895 16.3467 23.001 15.6448C24.0125 14.9429 24.7195 13.8991 24.9841 12.7171H21.961C21.8046 13.2233 21.4655 13.6574 21.0064 13.9392C20.5472 14.221 19.9989 14.3316 19.4626 14.2504C19.0806 14.2597 18.7011 14.1892 18.3495 14.0435C17.9979 13.8978 17.6824 13.6804 17.4243 13.406C17.1663 13.1315 16.9716 12.8064 16.8534 12.4524C16.7353 12.0985 16.6964 11.7239 16.7393 11.3541V11.0134H24.9841V9.86946C25.0429 9.1324 24.9385 8.39162 24.6778 7.6973C24.4172 7.00297 24.0064 6.37132 23.4734 5.84511C22.9403 5.3189 22.2974 4.91043 21.5882 4.64735C20.879 4.38428 20.12 4.27274 19.3627 4.3203ZM21.8611 9.18799H16.8143C16.783 8.85045 16.8244 8.51026 16.9358 8.1892C17.0473 7.86815 17.2263 7.57331 17.4615 7.32357C17.6967 7.07383 17.9829 6.8747 18.3016 6.73892C18.6204 6.60315 18.9648 6.53372 19.3127 6.5351C19.6606 6.53372 20.005 6.60315 20.3237 6.73892C20.6425 6.8747 20.9286 7.07383 21.1638 7.32357C21.399 7.57331 21.5781 7.86815 21.6895 8.1892C21.801 8.51026 21.8424 8.85045 21.8111 9.18799H21.8611Z" fill="#5A5A5A"/>
<path d="M23.1102 1.64308H15.615V2.86H23.1102V1.64308Z" fill="#5A5A5A"/>
</svg>
