<svg width="72" height="46" viewBox="0 0 72 46" fill="none" xmlns="http://www.w3.org/2000/svg">
<path d="M25.3278 21.2018C27.675 20.738 29.7755 19.476 31.2524 17.6422C32.7292 15.8084 33.4859 13.5229 33.3866 11.1957C33.3866 4.19838 27.8462 0 19.4276 0H0V45.4825H19.4276C28.7816 45.1326 35.9769 40.4444 35.9769 32.3275C36.0445 30.9134 35.821 29.5004 35.3196 28.1713C34.8183 26.8423 34.0491 25.624 33.0573 24.5877C32.0655 23.5515 30.8709 22.7183 29.5436 22.1369C28.2163 21.5554 26.783 21.2375 25.3278 21.2018ZM9.06619 6.43752H17.3409C21.6581 6.43752 24.1765 8.67666 24.1765 12.3852C24.1765 16.0938 21.4423 18.6128 15.1823 18.6128H9.06619V6.43752ZM16.2616 38.4152H9.06619V24.8404H17.9165C23.3131 24.8404 26.3351 27.4994 26.3351 31.8377C26.3351 36.176 23.3131 38.4152 15.9738 38.4152H16.2616Z" fill="black"/>
<path d="M55.7644 10.8458C53.5826 10.6691 51.3873 10.9533 49.3291 11.679C47.2709 12.4048 45.3984 13.5548 43.84 15.0503C42.2817 16.5458 41.0744 18.3513 40.3009 20.3431C39.5275 22.3349 39.2061 24.4658 39.3589 26.5897V29.7385C39.1818 31.9231 39.4976 34.119 40.2842 36.1726C41.0708 38.2262 42.3093 40.0879 43.913 41.6274C45.5166 43.1669 47.4468 44.3472 49.5685 45.0856C51.6902 45.824 53.9522 46.1027 56.1962 45.9023C59.748 46.3125 63.3296 45.4218 66.2429 43.4038C69.1561 41.3857 71.1921 38.385 71.9541 34.9865H63.2476C62.7973 36.442 61.8208 37.69 60.4983 38.5002C59.1759 39.3104 57.5967 39.6281 56.0523 39.3948C54.9522 39.4216 53.8591 39.2187 52.8465 38.8C51.8339 38.3812 50.9254 37.7562 50.1821 36.9671C49.4389 36.1781 48.8782 35.2432 48.5379 34.2256C48.1976 33.208 48.0855 32.1313 48.2093 31.068V30.0884H71.9541V26.7996C72.1235 24.6806 71.8228 22.5508 71.0722 20.5547C70.3215 18.5585 69.1385 16.7425 67.6033 15.2296C66.0681 13.7168 64.2165 12.5424 62.174 11.7861C60.1314 11.0297 57.9455 10.7091 55.7644 10.8458ZM62.9598 24.8404H48.4251C48.3349 23.87 48.4542 22.8919 48.7752 21.9689C49.0962 21.0459 49.6119 20.1982 50.2892 19.4802C50.9666 18.7622 51.7907 18.1897 52.7087 17.7993C53.6268 17.409 54.6186 17.2094 55.6205 17.2133C56.6225 17.2094 57.6143 17.409 58.5323 17.7993C59.4504 18.1897 60.2745 18.7622 60.9518 19.4802C61.6292 20.1982 62.1449 21.0459 62.4659 21.9689C62.7869 22.8919 62.9061 23.87 62.8159 24.8404H62.9598Z" fill="black"/>
<path d="M66.5575 3.14879H44.9713V6.64744H66.5575V3.14879Z" fill="black"/>
</svg>
