<svg width="25" height="17" viewBox="0 0 25 17" fill="none" xmlns="http://www.w3.org/2000/svg">
<path d="M8.79437 8.12357C9.60938 7.96223 10.3387 7.52327 10.8515 6.88544C11.3643 6.24761 11.6271 5.45265 11.5926 4.64317C11.5926 2.20933 9.66881 0.749023 6.74568 0.749023H0V16.569H6.74568C9.9936 16.4473 12.492 14.8166 12.492 11.9934C12.5154 11.5015 12.4378 11.01 12.2638 10.5478C12.0897 10.0855 11.8226 9.6617 11.4782 9.30128C11.1338 8.94086 10.7191 8.65103 10.2582 8.4488C9.79734 8.24657 9.29967 8.136 8.79437 8.12357ZM3.14798 2.98816H6.02114C7.52018 2.98816 8.39462 3.76699 8.39462 5.05693C8.39462 6.34686 7.44523 7.22305 5.27162 7.22305H3.14798V2.98816ZM5.64638 14.1108H3.14798V9.38917H6.22101C8.09481 9.38917 9.14414 10.314 9.14414 11.823C9.14414 13.332 8.09481 14.1108 5.54645 14.1108H5.64638Z" fill="#858585"/>
<path d="M19.3627 4.52147C18.6051 4.46 17.8428 4.55887 17.1282 4.8113C16.4135 5.06372 15.7633 5.46374 15.2222 5.98391C14.6811 6.50408 14.2619 7.1321 13.9934 7.82489C13.7248 8.51769 13.6132 9.25888 13.6663 9.99762V11.0929C13.6048 11.8527 13.7144 12.6165 13.9876 13.3308C14.2607 14.0451 14.6907 14.6926 15.2476 15.2281C15.8044 15.7636 16.4746 16.1741 17.2113 16.431C17.948 16.6878 18.7334 16.7847 19.5126 16.715C20.7458 16.8577 21.9895 16.5479 23.001 15.846C24.0125 15.1441 24.7195 14.1003 24.9841 12.9182H21.961C21.8046 13.4245 21.4655 13.8586 21.0064 14.1404C20.5472 14.4222 19.9989 14.5327 19.4626 14.4516C19.0806 14.4609 18.7011 14.3903 18.3495 14.2447C17.9979 14.099 17.6824 13.8816 17.4243 13.6072C17.1663 13.3327 16.9716 13.0075 16.8534 12.6536C16.7353 12.2996 16.6964 11.9251 16.7393 11.5553V11.2145H24.9841V10.0706C25.0429 9.33357 24.9385 8.59279 24.6778 7.89847C24.4172 7.20414 24.0064 6.57249 23.4734 6.04628C22.9403 5.52007 22.2974 5.1116 21.5882 4.84853C20.879 4.58545 20.12 4.47391 19.3627 4.52147ZM21.8611 9.38916H16.8143C16.783 9.05162 16.8244 8.71143 16.9358 8.39037C17.0473 8.06932 17.2263 7.77448 17.4615 7.52474C17.6967 7.275 17.9829 7.07587 18.3016 6.94009C18.6204 6.80432 18.9648 6.7349 19.3127 6.73627C19.6606 6.7349 20.005 6.80432 20.3237 6.94009C20.6425 7.07587 20.9286 7.275 21.1638 7.52474C21.399 7.77448 21.5781 8.06932 21.6895 8.39037C21.801 8.71143 21.8424 9.05162 21.8111 9.38916H21.8611Z" fill="#858585"/>
<path d="M23.1102 1.84425H15.615V3.06117H23.1102V1.84425Z" fill="#858585"/>
</svg>
