<svg width="8" height="8" viewBox="0 0 8 8" fill="none" xmlns="http://www.w3.org/2000/svg">
<path d="M2.03033 0.767521C1.73744 0.474628 1.26256 0.474628 0.96967 0.767521C0.676777 1.06041 0.676777 1.53529 0.96967 1.82818L2.93935 3.79786L0.969691 5.76752C0.676798 6.06042 0.676798 6.53529 0.969691 6.82818C1.26258 7.12107 1.73746 7.12107 2.03035 6.82818L4.00001 4.85852L5.96965 6.82816C6.26254 7.12105 6.73742 7.12105 7.03031 6.82816C7.3232 6.53527 7.3232 6.06039 7.03031 5.7675L5.06067 3.79786L7.03033 1.8282C7.32322 1.53531 7.32322 1.06044 7.03033 0.767542C6.73744 0.474648 6.26256 0.474648 5.96967 0.767542L4.00001 2.7372L2.03033 0.767521Z" fill="#1B1B1B"/>
</svg>
