<svg width="26" height="27" viewBox="0 0 26 27" fill="none" xmlns="http://www.w3.org/2000/svg">
<path fill-rule="evenodd" clip-rule="evenodd" d="M11.8468 23.9342C6.86713 23.3624 3 19.1328 3 14C3 8.47715 7.47715 4 13 4C18.5228 4 23 8.47715 23 14C23 19.1565 19.7173 18.7325 16.9135 18.3703C15.2964 18.1614 13.8386 17.9731 13.2619 18.888C12.8674 19.5136 13.2938 20.2938 13.8168 20.8168C14.4703 21.4703 14.4703 22.5297 13.8168 23.1832C13.2938 23.7062 12.5816 24.0186 11.8468 23.9342ZM12.085 8.99976C12.085 9.82818 11.4134 10.4998 10.585 10.4998C9.75658 10.4998 9.085 9.82818 9.085 8.99976C9.085 8.17133 9.75658 7.49976 10.585 7.49976C11.4134 7.49976 12.085 8.17133 12.085 8.99976ZM7.5 15C8.32843 15 9 14.3284 9 13.5C9 12.6716 8.32843 12 7.5 12C6.67157 12 6 12.6716 6 13.5C6 14.3284 6.67157 15 7.5 15ZM18.5 15C19.3284 15 20 14.3284 20 13.5C20 12.6716 19.3284 12 18.5 12C17.6716 12 17 12.6716 17 13.5C17 14.3284 17.6716 15 18.5 15ZM15.5 10.5C16.3284 10.5 17 9.82841 17 8.99998C17 8.17156 16.3284 7.49998 15.5 7.49998C14.6716 7.49998 14 8.17156 14 8.99998C14 9.82841 14.6716 10.5 15.5 10.5Z" fill="#38785C"/>
</svg>
