<svg width="26" height="26" viewBox="0 0 26 26" fill="none" xmlns="http://www.w3.org/2000/svg">
<g clip-path="url(#clip0_1049_986)">
<path d="M12.9718 7.54253C17.8819 7.54253 22.8529 6.23686 22.8529 3.74213C22.8529 -1.24738 3.09082 -1.24738 3.09082 3.74213C3.09082 6.23686 8.06178 7.54253 12.9718 7.54253Z" fill="#38785C"/>
<path d="M22.8224 17.9325C22.8328 17.9278 22.8425 17.9222 22.8529 17.9174V13.4072C17.0834 15.7425 9.27117 15.9183 3.09082 13.415V17.902C3.10121 17.9066 3.11089 17.9127 3.12127 17.9172C9.04087 20.5528 17.114 20.432 22.8224 17.9325Z" fill="#38785C"/>
<path d="M12.9718 25.9437C17.8819 25.9437 22.8529 24.638 22.8529 22.1433V19.5244C16.5272 22.0801 8.83544 21.8714 3.09082 19.5463V22.1433C3.09082 24.6381 8.06178 25.9437 12.9718 25.9437Z" fill="#38785C"/>
<path d="M22.8224 11.7552C22.8327 11.7511 22.8425 11.7456 22.8529 11.7416V6.6582C20.7032 8.38682 16.627 9.06248 12.9718 9.06248C9.31667 9.06248 5.24052 8.38682 3.09082 6.6582V11.7703C3.10121 11.7749 3.11089 11.781 3.12127 11.7855C8.88895 14.3683 17.0924 14.3637 22.8224 11.7552Z" fill="#38785C"/>
</g>
<defs>
<clipPath id="clip0_1049_986">
<rect width="25.9435" height="25.9435" fill="white"/>
</clipPath>
</defs>
</svg>
