<svg width="16" height="17" viewBox="0 0 16 17" fill="none" xmlns="http://www.w3.org/2000/svg">
<path fill-rule="evenodd" clip-rule="evenodd" d="M8 0.749023C5.8272 0.749023 5.5552 0.758087 4.70186 0.797023C3.85014 0.835959 3.26826 0.971424 2.75946 1.16929C2.22614 1.36982 1.7424 1.68449 1.3424 2.09196C0.935584 2.4915 0.620728 2.97489 0.419736 3.50849C0.222936 4.01729 0.086936 4.59969 0.048 5.45142C0.00959995 6.30422 0 6.57569 0 8.74902C0 10.9224 0.00906395 11.1938 0.048 12.0472C0.086936 12.8989 0.2224 13.4808 0.420264 13.9896C0.6208 14.5229 0.935464 15.0066 1.34294 15.4066C1.74248 15.8134 2.22587 16.1283 2.75946 16.3293C3.26826 16.5266 3.85014 16.6621 4.70186 16.701C5.5552 16.74 5.8272 16.749 8 16.749C10.1728 16.749 10.4448 16.74 11.2982 16.701C12.1498 16.6621 12.7318 16.5266 13.2406 16.3288C13.7738 16.1282 14.2576 15.8136 14.6576 15.4061C15.0644 15.0065 15.3793 14.5232 15.5802 13.9896C15.7776 13.4808 15.913 12.8989 15.952 12.0472C15.991 11.1938 16 10.9218 16 8.74902C16 6.57622 15.991 6.30422 15.952 5.45089C15.913 4.59916 15.7776 4.01729 15.5798 3.50849C15.3789 2.97466 15.064 2.49106 14.657 2.09142C14.2575 1.68461 13.7742 1.36975 13.2406 1.16876C12.7318 0.971959 12.1494 0.835959 11.2976 0.797023C10.4448 0.758623 10.1734 0.749023 8 0.749023ZM8 2.19062C10.136 2.19062 10.3894 2.19862 11.233 2.23702C12.0128 2.27276 12.4362 2.40236 12.7184 2.51276C13.0918 2.65729 13.3584 2.83116 13.6384 3.11062C13.9184 3.39062 14.0918 3.65729 14.2362 4.03062C14.3462 4.31276 14.4762 4.73622 14.512 5.51596C14.5504 6.35969 14.5584 6.61302 14.5584 8.74902C14.5584 10.885 14.5504 11.1384 14.512 11.9821C14.4762 12.7618 14.3466 13.1853 14.2362 13.4674C14.1082 13.8149 13.9039 14.1293 13.6384 14.3874C13.3803 14.653 13.0659 14.8573 12.7184 14.9853C12.4362 15.0952 12.0128 15.2253 11.233 15.261C10.3894 15.2994 10.1366 15.3074 8 15.3074C5.86346 15.3074 5.61066 15.2994 4.76694 15.261C3.9872 15.2253 3.56374 15.0957 3.2816 14.9853C2.93411 14.8573 2.61974 14.6529 2.3616 14.3874C2.0961 14.1293 1.8918 13.8149 1.76374 13.4674C1.65386 13.1853 1.52374 12.7618 1.488 11.9821C1.4496 11.1384 1.4416 10.885 1.4416 8.74902C1.4416 6.61302 1.4496 6.35969 1.488 5.51596C1.52374 4.73622 1.65334 4.31276 1.76374 4.03062C1.90826 3.65729 2.08214 3.39062 2.3616 3.11062C2.6197 2.84505 2.93409 2.64074 3.2816 2.51276C3.56374 2.40289 3.9872 2.27276 4.76694 2.23702C5.61066 2.19862 5.864 2.19062 8 2.19062Z" fill="#858585"/>
<path fill-rule="evenodd" clip-rule="evenodd" d="M8.02998 11.4124C7.67835 11.4124 7.33026 11.3439 7.00536 11.2108C6.68053 11.0777 6.38538 10.8826 6.13676 10.6367C5.88814 10.3908 5.69092 10.0989 5.55636 9.77764C5.4218 9.45638 5.35255 9.11202 5.35255 8.76425C5.35255 8.41648 5.4218 8.07213 5.55636 7.75086C5.69092 7.4296 5.88814 7.13767 6.13676 6.89178C6.38538 6.64588 6.68053 6.45083 7.00536 6.31774C7.33026 6.18467 7.67835 6.11617 8.02998 6.11617C8.74013 6.11617 9.42107 6.39516 9.92323 6.89178C10.4253 7.38841 10.7074 8.06197 10.7074 8.76425C10.7074 9.46654 10.4253 10.1401 9.92323 10.6367C9.42107 11.1333 8.74013 11.4124 8.02998 11.4124ZM8.02998 4.68499C6.93611 4.68499 5.88703 5.11477 5.11354 5.87978C4.34005 6.64479 3.90551 7.68237 3.90551 8.76425C3.90551 9.84613 4.34005 10.8837 5.11354 11.6487C5.88703 12.4138 6.93611 12.8435 8.02998 12.8435C9.12385 12.8435 10.1729 12.4138 10.9464 11.6487C11.7199 10.8837 12.1545 9.84613 12.1545 8.76425C12.1545 7.68237 11.7199 6.64479 10.9464 5.87978C10.1729 5.11477 9.12385 4.68499 8.02998 4.68499ZM13.3543 4.61092C13.3543 4.86665 13.2516 5.11192 13.0688 5.29275C12.886 5.47359 12.638 5.57518 12.3795 5.57518C12.1208 5.57518 11.8729 5.47359 11.69 5.29275C11.5072 5.11192 11.4044 4.86665 11.4044 4.61092C11.4044 4.35518 11.5072 4.10992 11.69 3.92908C11.8729 3.74825 12.1208 3.64666 12.3795 3.64666C12.638 3.64666 12.886 3.74825 13.0688 3.92908C13.2516 4.10992 13.3543 4.35518 13.3543 4.61092Z" fill="#858585"/>
</svg>
