<svg width="16" height="16" viewBox="0 0 16 16" fill="none" xmlns="http://www.w3.org/2000/svg">
<g clip-path="url(#clip0_1049_1215)">
<path d="M8.00012 4.65166C11.0283 4.65166 14.094 3.84643 14.094 2.30787C14.094 -0.769289 1.90625 -0.769289 1.90625 2.30787C1.90625 3.84643 4.97197 4.65166 8.00012 4.65166Z" fill="#A6A6A6"/>
<path d="M14.0752 11.0594C14.0816 11.0565 14.0876 11.053 14.094 11.0501V8.26855C10.5358 9.70877 5.71782 9.81718 1.90625 8.27337V11.0406C1.91266 11.0434 1.91863 11.0472 1.92503 11.05C5.57579 12.6754 10.5547 12.6009 14.0752 11.0594Z" fill="#A6A6A6"/>
<path d="M8.00012 15.9999C11.0283 15.9999 14.094 15.1947 14.094 13.6561V12.041C10.1928 13.6171 5.4491 13.4885 1.90625 12.0545V13.6561C1.90625 15.1947 4.97197 15.9999 8.00012 15.9999Z" fill="#A6A6A6"/>
<path d="M14.0752 7.24988C14.0816 7.24735 14.0876 7.24398 14.094 7.24148V4.10645C12.7682 5.17253 10.2544 5.58922 8.00012 5.58922C5.74589 5.58922 3.23203 5.17253 1.90625 4.10645V7.25923C1.91266 7.26204 1.91863 7.26582 1.92503 7.2686C5.4821 8.86148 10.5414 8.8586 14.0752 7.24988Z" fill="#A6A6A6"/>
</g>
<defs>
<clipPath id="clip0_1049_1215">
<rect width="16" height="16" fill="white"/>
</clipPath>
</defs>
</svg>
