<svg width="101" height="29" viewBox="0 0 101 29" fill="none" xmlns="http://www.w3.org/2000/svg">
<path d="M97.4354 0C97.4354 0 98.6723 3.02575 93.3715 5.05813C90.4913 6.16217 88.279 8.99191 90.9204 13.3632C91.1392 11.4093 92.0772 7.10124 96.1105 6.11818C96.1105 6.11818 92.3565 7.52188 92.0249 13.8759C93.9538 14.1467 98.4778 14.3287 99.8209 10.4028C101.595 5.21585 97.4354 0 97.4354 0Z" fill="#3A7F0D"/>
<path d="M92.0267 13.8495C96.1216 12.2152 99.1012 8.38664 99.5125 3.8163C98.6753 1.55814 97.4354 0 97.4354 0C97.4354 0 98.6723 3.02575 93.3715 5.05813C90.4913 6.16217 88.279 8.99191 90.9204 13.3632C91.1392 11.4093 92.0772 7.10124 96.1105 6.11818C96.1102 6.11821 92.3675 7.51841 92.0267 13.8495Z" fill="#49A010"/>
<path d="M90.5118 5.159C90.7232 5.159 90.8946 4.9876 90.8946 4.77618C90.8946 4.56475 90.7232 4.39335 90.5118 4.39335C90.3004 4.39335 90.129 4.56475 90.129 4.77618C90.129 4.9876 90.3004 5.159 90.5118 5.159Z" fill="#3A7F0D"/>
<path d="M91.7149 4.66679C91.8659 4.66679 91.9884 4.54437 91.9884 4.39335C91.9884 4.24234 91.8659 4.11992 91.7149 4.11992C91.5639 4.11992 91.4415 4.24234 91.4415 4.39335C91.4415 4.54437 91.5639 4.66679 91.7149 4.66679Z" fill="#49A010"/>
<path d="M91.4688 2.4793C91.8464 2.4793 92.1524 2.17325 92.1524 1.79572C92.1524 1.41819 91.8464 1.11214 91.4688 1.11214C91.0913 1.11214 90.7853 1.41819 90.7853 1.79572C90.7853 2.17325 91.0913 2.4793 91.4688 2.4793Z" fill="#49A010"/>
<path d="M93.5743 3.57306C93.6951 3.57306 93.793 3.47512 93.793 3.35431C93.793 3.23349 93.6951 3.13556 93.5743 3.13556C93.4535 3.13556 93.3555 3.23349 93.3555 3.35431C93.3555 3.47512 93.4535 3.57306 93.5743 3.57306Z" fill="#49A010"/>
<path d="M95.4065 2.75273C95.7539 2.75273 96.0354 2.47117 96.0354 2.12383C96.0354 1.7765 95.7539 1.49493 95.4065 1.49493C95.0592 1.49493 94.7776 1.7765 94.7776 2.12383C94.7776 2.47117 95.0592 2.75273 95.4065 2.75273Z" fill="#49A010"/>
<path d="M1 23.6701C3 19.6709 17 6.67128 22 10.6713C27 14.6713 31 31.6701 55.5 26.6701C80 21.6701 90 15.1701 90 15.1701" stroke="url(#paint0_linear_1178_248)"/>
<defs>
<linearGradient id="paint0_linear_1178_248" x1="1" y1="21.4763" x2="69" y2="24.6709" gradientUnits="userSpaceOnUse">
<stop stop-color="#1A3A06" stop-opacity="0"/>
<stop offset="1" stop-color="#49A010"/>
</linearGradient>
</defs>
</svg>
