<svg width="16" height="17" viewBox="0 0 16 17" fill="none" xmlns="http://www.w3.org/2000/svg">
<g clip-path="url(#clip0_1177_628)">
<path d="M0 2.60761C0 2.06888 0.180185 1.62443 0.540541 1.27428C0.900896 0.924102 1.36937 0.749023 1.94595 0.749023C2.51223 0.749023 2.97039 0.921403 3.32046 1.26619C3.68082 1.62175 3.861 2.08504 3.861 2.65609C3.861 3.17326 3.68598 3.60423 3.33591 3.94902C2.97555 4.30457 2.50193 4.48235 1.91506 4.48235H1.89961C1.33333 4.48235 0.875166 4.30457 0.525097 3.94902C0.175027 3.59346 0 3.14632 0 2.60761ZM0.200772 16.749V5.95306H3.62934V16.749H0.200772ZM5.52896 16.749H8.95753V10.7207C8.95753 10.3436 8.99872 10.0527 9.08108 9.848C9.22522 9.48166 9.44402 9.1719 9.73745 8.91871C10.0309 8.6655 10.399 8.53891 10.8417 8.53891C11.9949 8.53891 12.5714 9.35237 12.5714 10.9793V16.749H16V10.5591C16 8.96449 15.6396 7.75507 14.9189 6.93083C14.1982 6.10659 13.2458 5.69447 12.0618 5.69447C10.7336 5.69447 9.69884 6.29245 8.95753 7.48841V7.52073H8.94208L8.95753 7.48841V5.95306H5.52896C5.54954 6.29783 5.55985 7.36988 5.55985 9.16921C5.55985 10.9685 5.54954 13.4951 5.52896 16.749Z" fill="#858585"/>
</g>
<defs>
<clipPath id="clip0_1177_628">
<rect width="16" height="16" fill="white" transform="translate(0 0.749023)"/>
</clipPath>
</defs>
</svg>
