<svg width="90" height="28" viewBox="0 0 90 28" fill="none" xmlns="http://www.w3.org/2000/svg">
<g filter="url(#filter0_d_1020_2496)">
<path d="M33.1538 8.62799C33.1538 14.7031 28.0255 19.628 21.6994 19.628C15.3732 19.628 15.5 7.78909 10.2449 8.62799C-1.59082 10.5174 14.4188 12.41 20.7449 12.41C27.071 12.41 33.1538 2.55286 33.1538 8.62799Z" fill="url(#paint0_radial_1020_2496)"/>
</g>
<g filter="url(#filter1_i_1020_2496)">
<path d="M22.1533 27.1954V13.6071H26.7216C29.2281 13.6071 31.2697 15.4124 31.2697 17.8194C31.2697 20.2459 29.2281 22.2065 26.7216 22.2065H24.1343V27.1954H22.1533ZM24.1343 20.4982H26.7216C28.2579 20.4982 29.2888 19.2947 29.2888 17.8194C29.2888 16.3441 28.2579 15.3153 26.7216 15.3153H24.1343V20.4982Z" fill="white"/>
<path d="M36.6834 17.3341C39.5739 17.3341 41.8985 19.5665 41.8985 22.3424C41.8985 25.1183 39.5739 27.3507 36.6834 27.3507C33.7928 27.3507 31.4682 25.1183 31.4682 22.3424C31.4682 19.5665 33.7928 17.3341 36.6834 17.3341ZM36.7036 19.1782C34.8439 19.1782 33.4492 20.5759 33.4492 22.3424C33.4492 24.1089 34.8641 25.5065 36.7036 25.5065C38.543 25.5065 39.9176 24.1089 39.9176 22.3424C39.9176 20.5759 38.5633 19.1782 36.7036 19.1782Z" fill="white"/>
<path d="M43.0185 27.1954V22.1289C43.0185 18.9065 44.8175 17.4506 47.2634 17.4506H47.4655V19.2947H47.2634C45.8484 19.2947 44.9994 20.1683 44.9994 22.1289V27.1954H43.0185Z" fill="white"/>
<path d="M54.0607 19.3335H51.8776V22.5948C51.8776 24.4389 52.6256 25.293 54.0607 25.4095V27.2536C51.6351 27.1565 49.9169 25.7395 49.8967 22.6142V19.3335H48.4009V17.4894H49.8967V14.0147H51.8776V17.4894H54.0607V19.3335Z" fill="white"/>
<path d="M56.4527 27.1954V19.3335H54.9367V17.4894H56.4931C56.7155 15.1018 58.1507 13.6459 60.6167 13.5488V15.393C59.4443 15.5094 58.5549 16.2082 58.4741 17.4894H60.6167V19.3335H58.4337V27.1954H56.4527Z" fill="white"/>
<path d="M65.9183 17.3341C68.8089 17.3341 71.1334 19.5665 71.1334 22.3424C71.1334 25.1183 68.8089 27.3507 65.9183 27.3507C63.0277 27.3507 60.7031 25.1183 60.7031 22.3424C60.7031 19.5665 63.0277 17.3341 65.9183 17.3341ZM65.9385 19.1782C64.0788 19.1782 62.6841 20.5759 62.6841 22.3424C62.6841 24.1089 64.0991 25.5065 65.9385 25.5065C67.778 25.5065 69.1525 24.1089 69.1525 22.3424C69.1525 20.5759 67.7982 19.1782 65.9385 19.1782Z" fill="white"/>
<path d="M74.2344 27.1954H72.2534V13.6071H74.2344V27.1954Z" fill="white"/>
<path d="M77.0589 16.15C76.3717 16.15 75.8461 15.6453 75.8461 14.9853C75.8461 14.3253 76.3717 13.8206 77.0589 13.8206C77.726 13.8206 78.2516 14.3253 78.2516 14.9853C78.2516 15.6453 77.726 16.15 77.0589 16.15ZM76.0685 27.1954V17.4894H78.0494V27.1954H76.0685Z" fill="white"/>
<path d="M84.5726 17.3341C87.4632 17.3341 89.7878 19.5665 89.7878 22.3424C89.7878 25.1183 87.4632 27.3507 84.5726 27.3507C81.6821 27.3507 79.3575 25.1183 79.3575 22.3424C79.3575 19.5665 81.6821 17.3341 84.5726 17.3341ZM84.5928 19.1782C82.7332 19.1782 81.3384 20.5759 81.3384 22.3424C81.3384 24.1089 82.7534 25.5065 84.5928 25.5065C86.4323 25.5065 87.8068 24.1089 87.8068 22.3424C87.8068 20.5759 86.4525 19.1782 84.5928 19.1782Z" fill="white"/>
</g>
<defs>
<filter id="filter0_d_1020_2496" x="0" y="0.649902" width="39.1533" height="24.978" filterUnits="userSpaceOnUse" color-interpolation-filters="sRGB">
<feFlood flood-opacity="0" result="BackgroundImageFix"/>
<feColorMatrix in="SourceAlpha" type="matrix" values="0 0 0 0 0 0 0 0 0 0 0 0 0 0 0 0 0 0 127 0" result="hardAlpha"/>
<feOffset/>
<feGaussianBlur stdDeviation="3"/>
<feComposite in2="hardAlpha" operator="out"/>
<feColorMatrix type="matrix" values="0 0 0 0 0.276923 0 0 0 0 0.276923 0 0 0 0 0.276923 0 0 0 1 0"/>
<feBlend mode="normal" in2="BackgroundImageFix" result="effect1_dropShadow_1020_2496"/>
<feBlend mode="normal" in="SourceGraphic" in2="effect1_dropShadow_1020_2496" result="shape"/>
</filter>
<filter id="filter1_i_1020_2496" x="22.1533" y="13.5488" width="67.6348" height="13.8018" filterUnits="userSpaceOnUse" color-interpolation-filters="sRGB">
<feFlood flood-opacity="0" result="BackgroundImageFix"/>
<feBlend mode="normal" in="SourceGraphic" in2="BackgroundImageFix" result="shape"/>
<feColorMatrix in="SourceAlpha" type="matrix" values="0 0 0 0 0 0 0 0 0 0 0 0 0 0 0 0 0 0 127 0" result="hardAlpha"/>
<feOffset/>
<feGaussianBlur stdDeviation="2"/>
<feComposite in2="hardAlpha" operator="arithmetic" k2="-1" k3="1"/>
<feColorMatrix type="matrix" values="0 0 0 0 1 0 0 0 0 1 0 0 0 0 1 0 0 0 1 0"/>
<feBlend mode="normal" in2="shape" result="effect1_innerShadow_1020_2496"/>
</filter>
<radialGradient id="paint0_radial_1020_2496" cx="0" cy="0" r="1" gradientUnits="userSpaceOnUse" gradientTransform="translate(19.5769 13.1389) scale(13.5769 6.48905)">
<stop stop-color="#52AF41"/>
<stop offset="1" stop-color="#4EA674"/>
</radialGradient>
</defs>
</svg>
