<svg width="26" height="27" viewBox="0 0 26 27" fill="none" xmlns="http://www.w3.org/2000/svg">
<path fill-rule="evenodd" clip-rule="evenodd" d="M13.0516 4H12.9484C11.2682 3.99999 9.93732 3.99997 8.89575 4.14245C7.82382 4.28908 6.95621 4.59803 6.27199 5.29418C5.58778 5.99033 5.28413 6.87308 5.14001 7.9637C4.99997 9.02343 4.99999 10.3775 5 12.087V15.9129C4.99999 17.6225 4.99997 18.9766 5.14001 20.0363C5.28413 21.1269 5.58778 22.0097 6.27199 22.7058C6.95621 23.402 7.82382 23.7109 8.89575 23.8575C9.93731 24 11.2682 24 12.9484 24H13.0516C14.7318 24 16.0627 24 17.1043 23.8575C18.1762 23.7109 19.0438 23.402 19.728 22.7058C20.4122 22.0097 20.7159 21.1269 20.86 20.0363C21 18.9766 21 17.6225 21 15.913V12.0871C21 10.3775 21 9.02343 20.86 7.9637C20.7159 6.87308 20.4122 5.99033 19.728 5.29418C19.0438 4.59803 18.1762 4.28908 17.1043 4.14245C16.0627 3.99997 14.7318 3.99999 13.0516 4ZM9.57143 20.5116C9.57143 20.1263 9.87843 19.814 10.2571 19.814H15.7429C16.1216 19.814 16.4286 20.1263 16.4286 20.5116C16.4286 20.8969 16.1216 21.2093 15.7429 21.2093H10.2571C9.87843 21.2093 9.57143 20.8969 9.57143 20.5116Z" fill="#38785C"/>
</svg>
