<svg width="234" height="31" viewBox="0 0 234 31" fill="none" xmlns="http://www.w3.org/2000/svg">
<path d="M7.31575 30.9891C6.76683 31.0003 6.1964 30.9907 6.08009 30.9824C2.36698 30.632 0.702541 28.5775 0.698779 28.3751C0.696998 28.2793 0.801371 28.2132 0.875263 28.2117C0.980824 28.2095 1.11964 28.292 1.31281 28.4585C1.69917 28.7916 3.48922 29.6501 4.16838 29.828C4.91126 30.0259 5.57808 30.1082 6.46479 30.0901C9.68439 30.0243 12.9241 28.7647 12.8898 26.922C12.8722 25.974 11.8633 25.0996 10.0465 24.508C9.19647 24.227 8.10425 23.9829 5.90026 23.5804C3.15575 23.0717 2.21051 22.782 1.45054 22.2328C0.808262 21.7664 0.51315 21.229 0.499885 20.5154C0.464446 18.6088 2.69407 15.846 6.76607 12.7793C10.8486 9.71233 15.4445 7.56192 17.8935 7.51189C19.3925 7.48126 20.1564 8.24351 20.1764 9.31932C20.1834 9.69212 20.117 10.0984 19.9877 10.5273C19.5892 11.8141 17.7286 15.1127 16.839 16.1112C16.7252 16.2414 16.6101 16.297 16.5045 16.2991C16.304 16.3032 16.0783 16.0947 16.0756 15.9456C16.0738 15.8498 16.1853 15.6024 16.7151 14.558C17.9791 12.1133 18.6602 10.6929 18.6392 9.56383C18.6265 8.88214 18.5829 8.80844 18.1607 8.81706C16.7462 8.84596 13.3209 10.3438 10.2522 12.2819C5.2943 15.4093 1.74009 19.0622 1.77176 20.7665C1.79097 21.7996 3.03474 22.2431 7.32579 23.0079C11.8495 23.7892 13.3673 24.7705 14.0256 26.0996C14.2231 26.5005 14.2454 26.564 14.2549 27.0753C14.2642 27.5759 14.2445 27.6509 14.0718 28.0167C13.2912 29.7695 10.5776 30.9225 7.31575 30.9891Z" fill="white"/>
<path d="M20.5957 22.2147C18.9911 22.2474 17.7163 21.2719 17.689 19.8019C17.655 17.9699 19.3028 15.7199 20.8123 15.689C21.4668 15.6756 22.0216 15.984 22.0351 16.7083C22.0543 17.7415 20.8838 18.9695 19.2864 19.3857C19.2024 19.4087 19.1061 19.9115 19.1134 20.3056C19.132 21.3069 19.9946 21.6942 20.9763 21.6741C22.1797 21.6495 23.8511 20.667 25.4318 19.3561C25.7541 19.0831 25.9314 18.9623 26.0264 18.9603C26.0475 18.9599 26.1218 18.9797 26.123 19.0436C26.1254 19.1714 25.2527 19.9458 24.305 20.6578C22.7951 21.8074 21.609 22.194 20.5957 22.2147ZM19.386 19.064C19.4177 19.0634 19.6796 18.9515 19.9621 18.8072C20.851 18.3415 21.4602 17.5938 21.4503 17.0612C21.4459 16.8269 21.2838 16.6277 21.1888 16.6297C21.041 16.6327 20.3652 17.2006 19.9343 17.8807C19.6572 18.3126 19.3727 18.9151 19.3751 19.0429C19.3753 19.0536 19.3755 19.0642 19.386 19.064Z" fill="white"/>
<path d="M32.245 22.2963C32.0444 22.3004 31.8538 22.2724 31.6839 22.2226C31.4927 22.1625 31.2896 22.0282 31.0745 21.8194C30.6658 21.4229 30.5332 21.1059 30.5201 20.4029C30.497 19.1567 31.6044 16.8111 31.6013 16.6407C31.6011 16.6301 31.5903 16.6196 31.5901 16.609C31.5794 16.5985 31.5582 16.599 31.5371 16.5994C31.1043 16.6083 30.0156 17.1206 28.8824 18.0815C27.3019 19.4031 25.3351 22.1072 24.9657 22.1147C24.744 22.1193 24.4771 21.9649 24.4716 21.6666C24.4559 20.8252 25.2315 19.3708 26.5088 17.6398C27.0649 16.8826 27.8922 15.9386 28.1633 15.752C28.3509 15.6203 28.561 15.5627 28.751 15.5588C29.1627 15.5504 29.5154 15.7776 29.5216 16.1078C29.5297 16.5445 28.1441 18.1285 28.1455 18.2031C28.1666 18.2027 28.3747 18.0386 28.6036 17.8528C29.7786 16.8698 31.1378 16.1387 31.8451 16.1243C32.4362 16.1122 32.8563 16.5511 32.8683 17.2009C32.8871 18.2128 31.8447 20.0775 31.8647 21.1533C31.8702 21.4515 31.8927 21.5257 32.0218 21.6509C32.1508 21.7761 32.2251 21.7959 32.5207 21.7899C33.439 21.7711 34.6196 21.0864 36.3342 19.5915C36.9264 19.068 37.2702 18.8159 37.3863 18.8135C37.418 18.8128 37.4288 18.8233 37.4294 18.8552C37.4311 18.9511 36.1979 20.2123 35.2088 20.9678C34.1262 21.8104 33.0578 22.2797 32.245 22.2963Z" fill="white"/>
<path d="M38.8319 22.1618C38.5997 22.1665 38.3774 22.1391 38.1544 22.0691C37.6234 21.9094 37.2157 21.5661 36.9635 21.0598C36.8211 20.7857 36.8087 20.69 36.7977 20.0935C36.76 18.0697 38.4006 16.001 39.1712 15.9853C39.4985 15.9786 39.8185 16.1532 39.8233 16.4088C39.8264 16.5792 39.7452 16.7514 39.3041 17.453C38.3505 18.9856 38.0835 19.9607 38.098 20.7383C38.1083 21.2921 38.3472 21.6495 39.065 21.6349C40.8174 21.5991 43.5137 18.3793 43.8304 18.3728C43.8726 18.372 43.8945 18.4141 43.8957 18.4781C43.8975 18.5739 42.3328 20.1829 41.7818 20.6523C40.6072 21.6567 39.6659 22.1447 38.8319 22.1618ZM40.3785 15.0336C40.2307 15.0366 40.0505 14.9976 39.9758 14.9565C39.8902 14.8944 39.8356 14.7996 39.8334 14.6824C39.8239 14.1711 40.6287 13.1531 41.1037 13.1434C41.3676 13.138 41.6769 13.3021 41.6817 13.5578C41.689 13.9519 40.9063 15.0228 40.3785 15.0336Z" fill="white"/>
<path d="M45.1128 22.0335L44.9545 22.0367C44.6906 22.0421 44.5002 22.0247 44.3833 21.9844C43.6286 21.7228 42.9603 20.9906 42.946 20.2237C42.9284 19.2757 43.1526 18.2695 44.3243 17.1054C44.9983 16.4416 45.7295 16.0111 46.3613 15.913C46.8772 15.8278 47.0599 15.4298 47.746 15.4158C48.506 15.4003 49.1925 15.9723 49.2107 16.9523C49.2183 17.357 49.1224 17.8811 48.9034 18.5995L48.8935 18.6317C48.8954 18.7382 49.1707 18.7752 49.8463 18.7614C50.4691 18.7487 50.8913 18.74 51.7434 18.5628C52.3431 18.444 52.606 18.3853 52.7222 18.383C52.8066 18.3813 52.8178 18.413 52.8185 18.4556C52.8223 18.658 50.8031 19.1041 49.7897 19.1248C49.378 19.1333 49.092 19.0858 48.8175 19.0914C48.5853 19.0962 48.712 19.0936 48.3219 19.6983C47.5018 21.0257 46.2626 21.9673 45.1128 22.0335ZM45.1525 21.3294C45.5642 21.321 46.2155 21.1372 47.0153 20.4176C47.4101 20.0685 48.1206 19.095 48.1175 18.9246C48.1165 18.8713 46.9175 18.5655 46.4047 17.6809L46.2301 17.3755C45.1624 18.4522 44.4867 19.5955 44.5037 20.5115C44.5128 21.0015 44.8042 21.3365 45.1525 21.3294ZM48.29 18.5481C48.3217 18.5475 48.4037 18.4179 48.4641 18.2569C48.6159 17.9021 48.7422 17.3135 48.7367 17.0152C48.7242 16.3442 48.2821 15.8524 47.7965 15.8623C47.5749 15.8669 47.3239 15.9999 47.3253 16.0744C47.3261 16.117 47.4113 16.1579 47.4133 16.2644C47.419 16.5733 46.7998 16.7778 46.8059 17.108C46.8105 17.3529 47.007 17.7006 47.2651 17.951C47.4694 18.1493 48.1528 18.5509 48.29 18.5481Z" fill="white"/>
<path d="M54.1066 21.8497C53.8849 21.8543 53.6838 21.8264 53.4928 21.777C52.8238 21.5776 52.4341 21.0634 52.4212 20.3711C52.4048 19.487 52.958 18.57 54.2957 17.2533C54.6794 16.8725 54.9897 16.5252 54.9891 16.4933C54.9858 16.3122 53.9982 16.5881 53.983 15.7679C53.981 15.6614 54.0103 15.5329 54.0605 15.3934C54.0908 15.3182 54.652 14.2625 55.412 14.2469C55.8659 14.2377 56.1234 14.4562 56.129 14.7544C56.1379 15.2337 55.233 15.9768 55.2336 16.0088C55.2338 16.0194 55.3501 16.0277 55.4768 16.0251C55.9627 16.0365 56.4435 16.3357 56.451 16.7404C56.4581 17.1239 56.0984 17.6534 55.2598 18.5549C53.9138 19.9996 53.5656 20.5821 53.5729 20.9762C53.5781 21.2532 53.8127 21.3762 54.2983 21.3663C55.2905 21.346 56.6625 20.732 59.2685 18.8992C60.2586 18.197 60.2481 18.1973 60.2903 18.1964C60.3642 18.1949 60.4281 18.2256 60.4289 18.2682C60.4305 18.3534 60.2329 18.5172 59.5871 18.9993C57.0357 20.9268 55.2994 21.8254 54.1066 21.8497Z" fill="white"/>
<path d="M67.686 29.7558C67.591 29.7577 67.4956 29.7384 67.4104 29.6975C67.2289 29.5946 67.1527 29.4683 67.1489 29.266C67.1356 28.5523 68.2648 26.2383 70.9848 21.4516C71.4041 20.7185 71.7514 20.0827 71.751 20.0614C71.7504 20.0295 71.6209 19.8829 71.4596 19.7264C70.9223 19.2259 70.5071 18.4778 70.4994 18.0624C70.495 17.8281 70.6408 17.7186 70.7886 17.7155C70.9048 17.7132 71.0117 17.7856 71.0141 17.9134C71.0147 17.9453 70.9942 17.9777 70.9951 18.031C70.9967 18.1162 71.0308 18.2434 71.0855 18.3488C71.2064 18.6021 71.9815 19.3961 72.1187 19.3933C72.1609 19.3924 72.5093 18.8205 72.9906 18.0115C76.2879 12.4672 79.5613 7.33894 80.4269 7.32126C80.733 7.315 81.0648 7.5533 81.0682 7.73438C81.0773 8.22435 74.077 19.0762 73.5164 20.1639C73.5064 20.196 73.4965 20.2282 73.4969 20.2495C73.4979 20.3028 73.5514 20.3443 73.7538 20.4361C74.8621 20.9782 76.3168 21.4066 79.0825 21.3501C79.7581 21.3363 80.4227 21.3015 80.8334 21.2398C87.4372 20.3057 91.8185 16.263 91.7391 11.9917C91.6773 8.66844 88.9776 6.59248 82.9078 6.71648C79.8466 6.77902 76.204 7.38621 73.3823 8.40286C71.7249 9.00146 72.0862 9.12195 71.9173 9.1254C71.7273 9.12928 71.3019 8.96748 71.2963 8.66924C71.2945 8.57338 71.3246 8.48752 71.3969 8.4008C71.5314 8.24887 72.4624 7.77166 73.1858 7.49049C74.7057 6.88404 77.6126 5.89762 82.7639 5.79239C83.9462 5.76823 85.0765 5.78776 85.5738 5.84154C89.8181 6.3622 92.3115 8.13336 93.0431 11.1339C93.112 11.4309 93.1522 11.8883 93.1609 12.3569C93.1712 12.9108 93.1401 13.5082 93.063 13.904C92.2204 18.0023 88.2994 21.2364 82.0977 22.2156C81.5818 22.3007 80.569 22.3534 79.6084 22.373C78.8378 22.3887 78.0985 22.3825 77.6964 22.3375C75.4742 22.0952 74.5374 21.6881 73.0347 20.9516C71.5098 23.5614 71.1412 24.1869 71.1438 24.3254C71.1448 24.3787 71.2625 24.4615 71.2631 24.4934C71.2675 24.7278 68.8077 28.7419 68.0736 29.588C67.9806 29.6965 67.8338 29.7528 67.686 29.7558Z" fill="white"/>
<path d="M96.4576 20.9845C96.236 20.9891 96.0348 20.9612 95.8438 20.9118C95.1748 20.7124 94.7851 20.1982 94.7722 19.5059C94.7558 18.6218 95.309 17.7048 96.6468 16.3881C97.0304 16.0073 97.3407 15.66 97.3402 15.6281C97.3368 15.447 96.3493 15.7229 96.334 14.9027C96.332 14.7962 96.3613 14.6677 96.4115 14.5282C96.4418 14.453 97.003 13.3973 97.763 13.3817C98.2169 13.3725 98.4745 13.591 98.48 13.8892C98.4889 14.3685 97.584 15.1116 97.5846 15.1436C97.5848 15.1542 97.7011 15.1625 97.8278 15.1599C98.3138 15.1713 98.7945 15.4705 98.802 15.8752C98.8092 16.2587 98.4494 16.7882 97.6108 17.6897C96.2648 19.1344 95.9166 19.7169 95.9239 20.111C95.9291 20.388 96.1637 20.511 96.6493 20.5011C97.6416 20.4808 99.0135 19.8668 101.619 18.034C102.61 17.3319 102.599 17.3321 102.641 17.3312C102.715 17.3297 102.779 17.3604 102.78 17.403C102.781 17.4882 102.584 17.652 101.938 18.1341C99.3867 20.0616 97.6505 20.9602 96.4576 20.9845Z" fill="white"/>
<path d="M103.931 20.8318L103.773 20.8351C103.509 20.8405 103.319 20.8231 103.202 20.7828C102.447 20.5212 101.779 19.789 101.765 19.022C101.747 18.0741 101.971 17.0679 103.143 15.9038C103.817 15.24 104.548 14.8095 105.18 14.7114C105.696 14.6262 105.878 14.2282 106.565 14.2142C107.325 14.1987 108.011 14.7707 108.029 15.7507C108.037 16.1554 107.941 16.6795 107.722 17.3979L107.712 17.4301C107.714 17.5366 107.989 17.5736 108.665 17.5598C109.288 17.5471 109.71 17.5384 110.562 17.3612C111.162 17.2424 111.425 17.1837 111.541 17.1814C111.625 17.1796 111.636 17.2114 111.637 17.254C111.641 17.4564 109.622 17.9025 108.608 17.9232C108.197 17.9316 107.911 17.8842 107.636 17.8898C107.404 17.8946 107.53 17.892 107.14 18.4967C106.32 19.824 105.081 20.7657 103.931 20.8318ZM103.971 20.1278C104.383 20.1194 105.034 19.9356 105.834 19.216C106.229 18.8669 106.939 17.8934 106.936 17.723C106.935 17.6697 105.736 17.3639 105.223 16.4793L105.049 16.1739C103.981 17.2506 103.305 18.3939 103.322 19.3099C103.331 19.7999 103.623 20.1349 103.971 20.1278ZM107.109 17.3465C107.14 17.3459 107.222 17.2163 107.283 17.0552C107.434 16.7005 107.561 16.1119 107.555 15.8136C107.543 15.1426 107.101 14.6508 106.615 14.6607C106.393 14.6653 106.142 14.7982 106.144 14.8728C106.145 14.9154 106.23 14.9563 106.232 15.0628C106.238 15.3717 105.618 15.5762 105.624 15.9064C105.629 16.1513 105.826 16.499 106.084 16.7494C106.288 16.9477 106.971 17.3493 107.109 17.3465Z" fill="white"/>
<path d="M117.221 20.5603C116.155 20.5821 115.635 19.8788 115.425 19.3716C115.315 19.0969 115.29 18.9269 115.282 18.4902C115.27 17.8511 115.369 17.4868 115.367 17.3909L115.367 17.3589C115.325 17.3598 114.8 18.1377 114.055 18.9201C113.008 20.0177 112.38 20.3183 111.726 20.3316C110.702 20.3526 110.158 19.5006 110.141 18.5845C110.122 17.5726 110.669 16.3254 111.684 15.2604C112.845 14.0433 113.624 13.9421 114.479 13.9247C115.45 13.9048 116.107 14.5734 116.355 14.8667C116.672 14.2848 118.331 10.937 121.655 5.69049C123.081 3.43435 123.227 3.34612 123.607 3.33835C123.903 3.33231 124.16 3.52952 124.165 3.7958C124.17 4.07274 123.231 5.82878 121.593 8.59008C118.49 13.8214 116.571 17.3663 116.6 18.9321C116.611 19.5286 116.768 20.0155 117.433 20.0019C118.457 19.981 120.052 18.8935 121.443 17.5651C121.878 17.1407 122.097 16.9764 122.203 16.9742C122.203 16.9742 122.276 16.9727 122.277 17.0153C122.278 17.0686 121.957 17.4161 121.542 17.8188C120.101 19.2442 118.689 20.5304 117.221 20.5603ZM111.874 19.7532C112.528 19.7398 113.641 18.822 115.003 17.1213C115.705 16.2438 115.951 15.8659 115.948 15.7061C115.944 15.4611 114.883 15.1844 114.661 15.189C113.542 15.2118 111.412 17.6209 111.441 19.208C111.448 19.5808 111.589 19.759 111.874 19.7532Z" fill="white"/>
<path d="M129.329 20.313C129.171 20.3162 129.012 20.2982 128.832 20.2379C128.131 20.0391 127.285 19.4171 127.258 17.9791L127.247 17.3933C125.291 19.5004 124.429 20.2746 123.204 20.2996C122.159 20.3103 121.427 19.5581 121.405 18.397C121.369 16.4585 123.277 13.9687 124.533 13.943C124.966 13.9342 125.172 14.2284 125.174 14.3668C125.175 14.4201 124.969 14.6907 124.71 14.9624C123.323 16.4825 122.74 18.0608 122.756 18.9235C122.765 19.3922 122.845 19.7102 123.468 19.6975C124.217 19.6822 125.155 19.0237 126.574 17.5455C127.33 16.7416 127.506 16.5355 127.699 16.1373C128.208 15.104 128.768 14.5598 129.296 14.549C129.602 14.5428 130.039 14.7682 130.045 15.0878C130.048 15.2476 129.936 15.463 129.639 15.9379C128.726 17.3844 128.658 18.2808 128.669 18.856C128.68 19.4845 129.045 19.7754 129.53 19.7655C130.428 19.7471 131.463 19.2145 133.342 17.4712C133.923 16.9266 134.152 16.7407 134.258 16.7386C134.258 16.7386 134.332 16.7371 134.332 16.7797C134.334 16.8862 133.008 18.2346 132.239 18.9003C131.262 19.762 130.015 20.299 129.329 20.313Z" fill="white"/>
<path d="M136.117 20.1743C135.895 20.1789 135.694 20.1723 135.567 20.1323C134.495 19.8345 133.676 18.9668 133.653 17.7313C133.615 15.6862 135.6 13.3653 137.795 13.3205C138.439 13.3073 138.858 13.693 138.866 14.1084C138.871 14.4067 138.748 14.5797 138.537 14.584C138.315 14.5885 138.196 14.4524 138.07 14.455C137.563 14.4654 135.367 16.1725 135.124 17.9037C135.106 18.0532 135.097 18.1599 135.099 18.2558C135.109 18.8097 135.46 19.5164 136.453 19.4962C137.878 19.4671 139.275 18.5328 140.877 17.1788C141.334 16.7965 141.574 16.6211 141.679 16.6189C141.732 16.6179 141.754 16.6494 141.755 16.7239C141.757 16.8411 139.961 18.4655 139.335 18.9152C138.377 19.606 137.341 20.1493 136.117 20.1743Z" fill="white"/>
<path d="M141.975 20.0546C141.902 20.0562 141.827 20.0364 141.742 20.0061C141.242 19.8032 141 19.2754 140.981 18.2635C140.971 17.699 141.043 17.0369 141.199 16.3624C141.717 14.0928 144.032 9.66607 146.982 5.34357C146.992 5.3327 147.661 4.36005 147.66 4.32809C147.66 4.29614 147.512 4.28851 147.121 4.29648C146.182 4.31568 140.568 4.57953 140.572 4.7819C140.573 4.84581 140.627 4.90864 140.63 5.04712C140.631 5.11102 140.611 5.14341 140.568 5.14427C140.526 5.14513 140.451 5.10404 140.355 5.02077C140.066 4.80291 139.419 4.68824 139.413 4.3474C139.402 3.77221 143.023 3.67694 148.227 3.57062C149.464 1.96832 149.464 1.96832 150.613 0.708806C151.257 0.69565 151.66 0.772667 151.668 1.20938C151.67 1.30524 151.64 1.42306 151.579 1.53087C151.445 1.71475 150.148 3.51007 150.149 3.57398C150.16 3.58442 150.762 3.60408 151.501 3.62094C156.298 3.72541 159.091 4.00933 159.101 4.54191C159.102 4.63777 158.999 4.72514 158.872 4.72773C158.619 4.7329 158.72 4.51772 158.53 4.48964C158.02 4.35087 152.388 4.17822 149.654 4.23408C146.302 9.11887 143.428 14.1005 142.544 16.5374C142.111 17.697 141.904 19.0758 141.913 19.5338C141.915 19.6403 141.927 19.6934 141.958 19.6927C142 19.6918 142.062 19.5734 142.188 19.5708C142.294 19.5686 142.401 19.6623 142.402 19.7263C142.404 19.8328 142.134 20.0514 141.975 20.0546Z" fill="white"/>
<path d="M161.54 27.8384C161.361 27.8421 161.213 27.8451 161.128 27.8362C161.023 27.8277 160.694 27.7918 160.388 27.7661C157.933 27.5285 156.641 26.7664 155.163 25.6245C154.905 25.9388 154.75 26.1444 154.465 26.1502C154.222 26.1552 153.966 25.9793 153.961 25.7449C153.957 25.5319 154.087 25.135 154.247 24.6309C153.714 23.8 153.205 23.0965 153.178 21.6799C153.163 20.8597 153.261 19.8667 153.414 19.5759C153.485 19.4466 153.6 19.3696 153.716 19.3673C153.822 19.3651 153.908 19.4486 153.909 19.5338C153.912 19.6616 153.694 19.8792 153.715 20.9976C153.744 22.574 154.222 23.3101 154.611 23.7604C155.37 21.9654 158.025 16.5621 160.395 12.2621C160.722 11.648 160.824 11.4435 160.821 11.3263C160.82 11.2731 160.799 11.2522 160.798 11.1989C160.79 10.7942 162.746 8.05837 162.949 7.63864C163.122 7.29413 163.299 7.13069 163.605 7.12444C163.964 7.1171 164.422 7.34216 164.431 7.78953C164.439 8.24755 163.971 9.20545 161.91 13.0942C160.186 16.3261 155.621 24.7201 155.624 24.8798C155.626 24.9757 156.385 25.493 156.897 25.7489C158.08 26.3321 159.469 26.6127 160.957 26.5823C162.667 26.5474 164.507 26.1049 166.297 25.2479C171.363 22.8428 175.269 17.0729 175.176 12.088C175.093 7.61433 171.516 5.4817 167.041 5.04035C166.617 4.99572 165.846 4.99016 165.012 5.00719C164.031 5.02725 162.976 5.08077 162.386 5.15675C159.974 5.49373 157.674 6.212 156.234 7.09388C154.813 7.94338 155.235 8.4995 154.834 8.5077C154.613 8.51223 154.322 8.2198 154.317 7.97482C154.288 6.36644 159.54 4.31982 164.892 4.21048C171.046 4.08476 175.599 6.42122 176.66 11.2585C176.73 11.598 176.784 12.2469 176.797 12.918C176.81 13.6103 176.78 14.3142 176.714 14.7098C175.644 21.3275 169.882 26.6451 163.723 27.6766C163.249 27.7502 162.174 27.8255 161.54 27.8384Z" fill="white"/>
<path d="M181.217 18.9333C179.613 18.9661 178.338 17.9905 178.31 16.5206C178.276 14.6885 179.924 12.4385 181.434 12.4077C182.088 12.3943 182.643 12.7026 182.656 13.4269C182.676 14.4601 181.505 15.6881 179.908 16.1044C179.824 16.1274 179.728 16.6302 179.735 17.0243C179.753 18.0255 180.616 18.4128 181.598 18.3928C182.801 18.3682 184.472 17.3857 186.053 16.0747C186.376 15.8017 186.553 15.6809 186.648 15.679C186.669 15.6785 186.743 15.6983 186.744 15.7622C186.747 15.8901 185.874 16.6644 184.926 17.3764C183.417 18.5261 182.23 18.9126 181.217 18.9333ZM180.007 15.7827C180.039 15.782 180.301 15.6701 180.583 15.5258C181.472 15.0601 182.082 14.3124 182.072 13.7799C182.067 13.5455 181.905 13.3464 181.81 13.3483C181.662 13.3513 180.987 13.9192 180.556 14.5993C180.279 15.0312 179.994 15.6338 179.996 15.7616C179.997 15.7722 179.997 15.7829 180.007 15.7827Z" fill="white"/>
<path d="M185.382 19.1679C184.052 19.1951 183.791 18.7955 183.784 18.4014C183.774 17.8581 184.71 17.0718 186.242 16.5504C186.41 16.4937 186.567 16.4265 186.587 16.4048L186.587 16.3941C186.587 16.3728 186.405 16.27 186.161 16.1791C185.023 15.7441 184.711 15.4521 184.702 14.9409C184.678 13.6946 186.862 11.8705 188.382 11.8395C189.132 11.8242 189.742 12.2593 189.751 12.7705C189.756 13.0262 189.592 13.2853 189.381 13.2896C189.265 13.2919 189.168 13.2193 188.873 13.2254C188.208 13.2389 186.131 15.1461 186.134 15.3165L186.134 15.3272C186.145 15.3376 186.932 15.6092 187.69 16.0839C189.257 15.7216 190.953 15.4738 191.607 15.4604C191.744 15.4576 191.797 15.4779 191.83 15.5092C191.862 15.5405 191.873 15.5509 191.873 15.5722C191.875 15.6574 187.956 16.1531 187.96 16.398C187.964 16.6324 188.152 16.5007 188.165 17.1824C188.179 17.9599 187.367 19.1273 185.382 19.1679ZM184.716 18.5528C185.497 18.5369 186.46 18.059 186.785 17.3811C186.846 17.2519 186.883 16.9954 186.881 16.8357C186.879 16.7718 186.868 16.7294 186.857 16.7083L186.836 16.7087C186.53 16.715 184.592 17.575 184.307 18.1669C184.257 18.2745 184.226 18.3178 184.227 18.3604C184.239 18.4347 184.357 18.5601 184.716 18.5528Z" fill="white"/>
<path d="M193.035 19.0115C192.803 19.0163 192.581 18.9889 192.358 18.9188C191.827 18.7592 191.419 18.4159 191.167 17.9096C191.024 17.6354 191.012 17.5398 191.001 16.9433C190.963 14.9195 192.604 12.8508 193.375 12.835C193.702 12.8283 194.022 13.003 194.027 13.2586C194.03 13.429 193.948 13.6012 193.507 14.3028C192.554 15.8354 192.287 16.8105 192.301 17.588C192.312 18.1419 192.551 18.4993 193.268 18.4847C195.021 18.4489 197.717 15.2291 198.034 15.2226C198.076 15.2217 198.098 15.2639 198.099 15.3278C198.101 15.4237 196.536 17.0327 195.985 17.5021C194.811 18.5064 193.869 18.9945 193.035 19.0115ZM194.582 11.8833C194.434 11.8863 194.254 11.8474 194.179 11.8063C194.093 11.7441 194.039 11.6493 194.037 11.5322C194.027 11.0209 194.832 10.0028 195.307 9.99314C195.571 9.98774 195.88 10.1519 195.885 10.4076C195.892 10.8017 195.11 11.8725 194.582 11.8833Z" fill="white"/>
<path d="M192.641 29.0358C190.508 29.0794 188.987 27.331 188.952 25.4457C188.902 22.7508 191.324 20.1334 195.059 18.8104C196.78 18.2105 198.727 17.8723 198.726 17.8191C198.725 17.7765 198.084 17.9387 197.526 16.8633C197.383 16.5785 197.371 16.4828 197.359 15.8331C197.348 15.2366 197.365 15.0658 197.466 14.776C198.018 13.2197 199.681 11.8324 201.17 11.802C202.342 11.7781 202.915 12.5123 203.171 13.1997C203.478 12.6819 203.518 12.5532 203.919 12.545C204.214 12.539 204.483 12.7786 204.488 13.0449C204.501 13.7585 203.054 17.1766 203.058 17.3789C203.059 17.4215 203.313 17.4377 204.157 17.4204C205.899 17.3955 206.544 17.4462 206.546 17.5208C206.547 17.606 203.96 17.6162 202.896 17.7445C200.652 23.1288 198.659 26.1318 195.611 28.0481C194.609 28.6653 193.549 29.0173 192.641 29.0358ZM192.254 28.138C193.078 28.1212 194.368 27.626 196.117 25.7468C197.65 24.1385 198.605 22.6485 200.325 19.1929C200.661 18.5254 200.925 17.9553 200.924 17.902C200.913 17.8916 200.892 17.892 200.84 17.8931C200.544 17.8991 199.575 18.0468 198.628 18.2153C191.43 19.5771 189.509 23.0368 189.55 25.2523C189.582 26.9353 190.808 28.1676 192.254 28.138ZM199.506 17.7285C199.738 17.7238 201.108 17.568 201.128 17.5249C201.18 17.4706 202.358 14.9425 202.357 14.8998C202.336 14.9003 202.181 15.0846 202.006 15.3226C201.285 16.2963 200.237 17.2767 199.609 17.5986C199.494 17.6542 199.421 17.6983 199.421 17.7196C199.421 17.7303 199.443 17.7298 199.506 17.7285ZM198.949 17.303C199.508 17.2916 200.833 16.3802 202.297 14.4749C202.575 14.1069 202.801 13.7826 202.801 13.7613C202.8 13.708 202.143 13.0182 201.594 13.0294C201.214 13.0372 200.441 13.5005 199.799 14.1849C198.867 15.163 198.617 15.9033 198.632 16.7128C198.64 17.1389 198.717 17.3078 198.949 17.303Z" fill="white"/>
<path d="M212.501 18.6139C212.3 18.618 212.11 18.5899 211.94 18.5401C211.748 18.4801 211.545 18.3457 211.33 18.137C210.922 17.7404 210.789 17.4235 210.776 16.7205C210.753 15.4742 211.86 13.1287 211.857 12.9583C211.857 12.9476 211.846 12.9372 211.846 12.9265C211.835 12.9161 211.814 12.9165 211.793 12.917C211.36 12.9258 210.271 13.4382 209.138 14.399C207.558 15.7206 205.591 18.4247 205.221 18.4323C205 18.4368 204.733 18.2824 204.727 17.9842C204.712 17.1427 205.487 15.6884 206.764 13.9574C207.321 13.2001 208.148 12.2562 208.419 12.0695C208.607 11.9378 208.817 11.8802 209.007 11.8763C209.418 11.8679 209.771 12.0951 209.777 12.4253C209.785 12.8621 208.4 14.4461 208.401 14.5206C208.422 14.5202 208.63 14.3561 208.859 14.1703C210.034 13.1873 211.394 12.4563 212.101 12.4418C212.692 12.4297 213.112 12.8687 213.124 13.5184C213.143 14.5303 212.1 16.395 212.12 17.4708C212.126 17.7691 212.148 17.8432 212.277 17.9684C212.407 18.0937 212.481 18.1135 212.776 18.1074C213.695 18.0887 214.875 17.4039 216.59 15.9091C217.182 15.3855 217.526 15.1334 217.642 15.131C217.674 15.1304 217.685 15.1408 217.685 15.1728C217.687 15.2686 216.454 16.5299 215.464 17.2853C214.382 18.1279 213.314 18.5973 212.501 18.6139Z" fill="white"/>
<path d="M219.979 18.1414C218.374 18.1742 217.1 17.1986 217.072 15.7287C217.038 13.8967 218.686 11.6466 220.196 11.6158C220.85 11.6024 221.405 11.9108 221.418 12.6351C221.438 13.6683 220.267 14.8963 218.67 15.3125C218.586 15.3355 218.489 15.8383 218.497 16.2324C218.515 17.2336 219.378 17.6209 220.36 17.6009C221.563 17.5763 223.234 16.5938 224.815 15.2828C225.137 15.0099 225.315 14.889 225.41 14.8871C225.431 14.8867 225.505 14.9065 225.506 14.9704C225.509 15.0982 224.636 15.8726 223.688 16.5845C222.178 17.7342 220.992 18.1207 219.979 18.1414ZM218.769 14.9908C218.801 14.9901 219.063 14.8782 219.345 14.7339C220.234 14.2682 220.844 13.5206 220.834 12.988C220.829 12.7537 220.667 12.5545 220.572 12.5565C220.424 12.5595 219.749 13.1274 219.318 13.8075C219.041 14.2394 218.756 14.8419 218.758 14.9697C218.759 14.9803 218.759 14.991 218.769 14.9908Z" fill="white"/>
<path d="M227.416 18.3092C227.195 18.3137 226.994 18.2858 226.803 18.2365C226.134 18.037 225.744 17.5229 225.731 16.8305C225.715 15.9464 226.268 15.0294 227.606 13.7127C227.989 13.332 228.3 12.9846 228.299 12.9527C228.296 12.7716 227.308 13.0475 227.293 12.2274C227.291 12.1208 227.32 11.9924 227.37 11.8528C227.401 11.7776 227.962 10.7219 228.722 10.7064C229.176 10.6971 229.433 10.9156 229.439 11.2139C229.448 11.6932 228.543 12.4362 228.543 12.4682C228.544 12.4788 228.66 12.4871 228.787 12.4845C229.273 12.4959 229.753 12.7951 229.761 13.1999C229.768 13.5833 229.408 14.1128 228.57 15.0143C227.224 16.459 226.875 17.0415 226.883 17.4357C226.888 17.7126 227.123 17.8357 227.608 17.8257C228.6 17.8055 229.972 17.1914 232.578 15.3587C233.568 14.6565 233.558 14.6567 233.6 14.6558C233.674 14.6543 233.738 14.685 233.739 14.7276C233.74 14.8128 233.543 14.9767 232.897 15.4587C230.346 17.3862 228.609 18.2848 227.416 18.3092Z" fill="white"/>
</svg>
