<svg width="26" height="26" viewBox="0 0 26 26" fill="none" xmlns="http://www.w3.org/2000/svg">
<path fill-rule="evenodd" clip-rule="evenodd" d="M2 20.24C2 19.8203 2.3436 19.48 2.76744 19.48H23.2326C23.6564 19.48 24 19.8203 24 20.24C24 20.6597 23.6564 21 23.2326 21H2.76744C2.3436 21 2 20.6597 2 20.24Z" fill="#38785C"/>
<path fill-rule="evenodd" clip-rule="evenodd" d="M4.68981 3.8904C3.7907 4.78079 3.7907 6.21386 3.7907 9.08V14.1467C3.7907 16.0574 3.7907 17.0128 4.39011 17.6064C4.98952 18.2 5.95425 18.2 7.88372 18.2H18.1163C20.0457 18.2 21.0105 18.2 21.6099 17.6064C22.2093 17.0128 22.2093 16.0574 22.2093 14.1467V9.08C22.2093 6.21386 22.2093 4.78079 21.3102 3.8904C20.4111 3 18.964 3 16.0698 3H9.93023C7.03603 3 5.58893 3 4.68981 3.8904ZM9.16279 15.16C9.16279 14.7403 9.50639 14.4 9.93023 14.4H16.0698C16.4936 14.4 16.8372 14.7403 16.8372 15.16C16.8372 15.5797 16.4936 15.92 16.0698 15.92H9.93023C9.50639 15.92 9.16279 15.5797 9.16279 15.16Z" fill="#38785C"/>
</svg>
